{"title":"The Blacklist S01E01 HDTV 480p x264 AAC E-Subs [GWC].mp4","uid":8957965,"size":161453972,"categoryP":"video","categoryS":"tv_shows","magnet":"?xt=urn:btih:6c93d3b2c9dc5c80add0361c8da8ca2f25f6c5e6&amp;dn=The+Blacklist+S01E01+HDTV+480p+x264+AAC+E-Subs+%5BGWC%5D.mp4&amp;tr=udp%3A%2F%2Ftracker.openbittorrent.com%3A80&amp;tr=udp%3A%2F%2Fopen.demonii.com%3A1337&amp;tr=udp%3A%2F%2Ftracker.coppersurfer.tk%3A6969&amp;tr=udp%3A%2F%2Fexodus.desync.com%3A6969","seeders":2,"leechers":0,"uploader":"canc232","files":1,"time":1380040779,"description":"The Blacklist S01E01 HDTV 480p x264 AAC E-Subs [GWC].mp4\n\nSCREENS : \n &lt;a href=&quot;\nhttp://s11.postimg.org/z9oxyt1w3/The_Blacklist_S01_E01_HDTV_480p_x264_AAC_E_Subs.jpg&quot; rel=&quot;nofollow&quot; target=&quot;_NEW&quot;&gt;\nhttp://s11.postimg.org/z9oxyt1w3/The_Blacklist_S01_E01_HDTV_480p_x264_AAC_E_Subs.jpg&lt;/a&gt; &lt;a href=&quot;\nhttp://s11.postimg.org/h5lxe647n/The_Blacklist_S01_E01_HDTV_480p_x264_AAC_E_Subs.jpg&quot; rel=&quot;nofollow&quot; target=&quot;_NEW&quot;&gt;\nhttp://s11.postimg.org/h5lxe647n/The_Blacklist_S01_E01_HDTV_480p_x264_AAC_E_Subs.jpg&lt;/a&gt; &lt;a href=&quot;\nhttp://s11.postimg.org/pmlfp38wj/The_Blacklist_S01_E01_HDTV_480p_x264_AAC_E_Subs.jpg&quot; rel=&quot;nofollow&quot; target=&quot;_NEW&quot;&gt;\nhttp://s11.postimg.org/pmlfp38wj/The_Blacklist_S01_E01_HDTV_480p_x264_AAC_E_Subs.jpg&lt;/a&gt;\n\nMEDIA INFO :\n\nGeneral \nFormat : MPEG-4 \nFormat profile : Base Media \nCodec ID : isom \nFile size : 154 MiB \nDuration : 43mn 11s \nOverall bit rate mode : Variable \nOverall bit rate : 498 Kbps \n\nVideo \nID : 1 \nFormat : AVC \nFormat profile : &lt;a class=&quot;__cf_email__&quot; href=&quot;/cdn-cgi/l/email-protection&quot; data-cfemail=&quot;d991b0beb19995eaf7e9&quot;&gt;[email&amp;#160;protected]&lt;/a&gt;&lt;script cf-hash='f9e31' type=&quot;text/javascript&quot;&gt;\n/* &lt;![CDATA[ */!function(){try{var t=&quot;currentScript&quot;in document?document.currentScript:function(){for(var t=document.getElementsByTagName(&quot;script&quot;),e=t.length;e--;)if(t[e].getAttribute(&quot;cf-hash&quot;))return t[e]}();if(t&amp;&amp;t.previousSibling){var e,r,n,i,c=t.previousSibling,a=c.getAttribute(&quot;data-cfemail&quot;);if(a){for(e=&quot;&quot;,r=parseInt(a.substr(0,2),16),n=2;a.length-n;n+=2)i=parseInt(a.substr(n,2),16)^r,e+=String.fromCharCode(i);e=document.createTextNode(e),c.parentNode.replaceChild(e,c)}}}catch(u){}}();/* ]]&gt; */&lt;/script&gt; \nFormat settings, CABAC : Yes \nFormat settings, ReFrames : 4 frames \nDuration : 43mn 3s \nBit rate : 423 Kbps \nMaximum bit rate : 1 594 Kbps \nWidth : 720 pixels \nHeight : 404 pixels \nDisplay aspect ratio : 16:9 \nFrame rate mode : Variable \nFrame rate : 23.976 fps \nStream size : 130 MiB (85%) \nTitle : The Blacklist S01E01 HDTV 480p x264 AAC [GWC] \nWriting library : x264 core\nLanguage : English \n\nAudio \nID : 2 \nFormat : AAC \nFormat profile : LC \nDuration : 43mn 3s \nBit rate mode : Variable \nChannel(s) : 2 channels \nSampling rate : 44.1 KHz \nTitle : The Blacklist S01E01 HDTV 480p x264 AAC [GWC] \nLanguage : English \n\nText \nID : 3 \nFormat : Timed Text \nMuxing mode : sbtl \nCodec ID : tx3g \nDuration : 43mn 11s \nStream size : 24.6 KiB (0%) \nTitle : English Subtitle by Elderfel \nLanguage : English","torrent":{"xt":"urn:btih:6c93d3b2c9dc5c80add0361c8da8ca2f25f6c5e6","amp;dn":"The+Blacklist+S01E01+HDTV+480p+x264+AAC+E-Subs+%5BGWC%5D.mp4","amp;tr":["udp%3A%2F%2Ftracker.openbittorrent.com%3A80","udp%3A%2F%2Fopen.demonii.com%3A1337","udp%3A%2F%2Ftracker.coppersurfer.tk%3A6969","udp%3A%2F%2Fexodus.desync.com%3A6969"],"infoHash":"6c93d3b2c9dc5c80add0361c8da8ca2f25f6c5e6","infoHashBuffer":{"type":"Buffer","data":[108,147,211,178,201,220,92,128,173,208,54,28,141,168,202,47,37,246,197,230]},"announce":[],"urlList":[]}}